<svg width="100" height="100" viewBox="0 0 100 100" fill="none" xmlns="http://www.w3.org/2000/svg">
<path d="M47.3807 27.6815C46.3965 19.2468 45.3573 10.3411 45.3573 0H54.6427C54.6427 10.225 53.6085 19.1194 52.6255 27.5635C51.8247 34.445 51.0588 41.0275 50.9165 47.7875C55.579 42.9242 59.6575 37.7675 63.93 32.3657C69.1978 25.7057 74.7607 18.6736 82.0725 11.3616L88.6385 17.9276C81.4082 25.1578 74.3867 30.7153 67.721 35.9915L67.7148 35.9963C62.2852 40.2945 57.0913 44.406 52.2125 49.0835C58.9475 48.9412 65.4778 48.1792 72.318 47.381C80.7528 46.3965 89.659 45.3573 100 45.3573V54.6427C89.7755 54.6427 80.881 53.608 72.4372 52.6255L72.431 52.625C65.551 51.8245 58.9705 51.059 52.2125 50.9165C57.0725 55.5755 62.2265 59.6523 67.6247 63.9218L67.6333 63.929C74.2935 69.1973 81.326 74.7597 88.6385 82.0725L82.0725 88.6385C74.8422 81.4085 69.285 74.3875 64.0095 67.7223L63.997 67.705L63.9865 67.6913C59.6938 62.2702 55.5872 57.0845 50.9165 52.2125C51.0588 58.9725 51.8247 65.555 52.6255 72.4365C53.6085 80.8808 54.6427 89.775 54.6427 100H45.3573C45.3573 89.659 46.3965 80.7533 47.3807 72.3185L47.3828 72.3047C48.18 65.4692 48.9412 58.943 49.0835 52.2125C44.4128 57.0845 40.3063 62.2702 36.0135 67.6913L36.003 67.705L35.9905 67.7223C30.715 74.3875 25.1578 81.4085 17.9276 88.6385L11.3616 82.0725C18.674 74.7597 25.7065 69.1973 32.3667 63.929L32.3753 63.9218C37.7735 59.6523 42.9275 55.5755 47.7875 50.9165C41.0275 51.0592 34.4447 51.825 27.5627 52.6255C19.119 53.608 10.2246 54.6427 0 54.6427V45.3573C10.3411 45.3573 19.2473 46.3965 27.682 47.381C34.5222 48.1792 41.0525 48.9412 47.7875 49.0835C42.9067 44.4043 37.7108 40.2915 32.279 35.9915C25.6133 30.7153 18.5917 25.1578 11.3616 17.9276L17.9276 11.3616C25.2393 18.6736 30.8023 25.7057 36.07 32.3657C40.3425 37.7673 44.421 42.924 49.0835 47.787C48.9412 41.0567 48.18 34.5308 47.3828 27.6953L47.3807 27.6815Z" fill="black" fill-opacity="0.1"/>
</svg>
